# xmcd CD database file
#
# Track frame offsets:
#	150
#	15425
#	33275
#	54175
#	72250
#	91575
#	105525
#	120650
#	135925
#	153100
#	166575
#	192200
#	215975
#	230250
#	245225
#	264300
#
# Disc length: 3717 seconds
#
# Revision: 4
# Processed by: cddbd v1.5.2PL0 Copyright (c) Steve Scherf et al.
# Submitted via: CDex 1.51
#
DISCID=c10e8310
DTITLE=Louis Armstrong - SimplyThe Best - Dzordz and Gonzo - Studio
DYEAR=2000
DGENRE=Jazz
TTITLE0=On the sunny side of the street
TTITLE1=Indiana
TTITLE2=Black and blue
TTITLE3=Ain't misbehavin'
TTITLE4=West end blues (Live)
TTITLE5=I got rhythm
TTITLE6=When it's sleepy time down and south
TTITLE7=Mack the knife
TTITLE8=Black o' town blues
TTITLE9=Honeysuckle rose
TTITLE10=Basin street blues
TTITLE11=Struttin' with some barbecue
TTITLE12=Cabaret
TTITLE13=Georgia on my mind
TTITLE14=All of me
TTITLE15=Lonesome blues
EXTD=YEAR: 2000
EXTT0=
EXTT1=
EXTT2=
EXTT3=
EXTT4=
EXTT5=
EXTT6=
EXTT7=
EXTT8=
EXTT9=
EXTT10=
EXTT11=
EXTT12=
EXTT13=
EXTT14=
EXTT15=
PLAYORDER=
